<svg width="18" height="18" viewBox="0 0 18 18" fill="none" xmlns="http://www.w3.org/2000/svg">
<path d="M14.4229 3.09277C15.4315 3.19506 16.2188 4.0464 16.2188 5.08203V12.9189C16.2185 13.9544 15.4314 14.806 14.4229 14.9082L14.2188 14.9189H3.78516C2.68075 14.9189 1.78542 14.0233 1.78516 12.9189V5.08203C1.78516 3.97746 2.68059 3.08105 3.78516 3.08105H14.2188L14.4229 3.09277ZM3.78516 4.58203C3.50901 4.58203 3.28516 4.80589 3.28516 5.08203V12.9189C3.28542 13.1923 3.50497 13.4138 3.77734 13.418L6.19922 10.0068L6.25488 9.93652C6.3939 9.78317 6.59214 9.6931 6.80176 9.69043C7.04121 9.68751 7.26758 9.79952 7.41113 9.99121L8.41113 11.3262L10.3408 8.35547L10.3984 8.27832C10.5426 8.10854 10.7564 8.00994 10.9824 8.01367C11.2407 8.01801 11.4789 8.15483 11.6123 8.37598L14.5674 13.2754C14.6602 13.1847 14.7186 13.0589 14.7188 12.9189V5.08203C14.7188 4.84035 14.5473 4.63836 14.3193 4.5918L14.2188 4.58203H3.78516ZM5.7373 13.248H7.16406L7.54102 12.666L6.82715 11.7129L5.7373 13.248ZM8.95312 13.248H12.7988L10.9453 10.1768L8.95312 13.248ZM5.79102 5.75195C6.62275 5.75195 7.29688 6.42608 7.29688 7.25781C7.29668 8.08937 6.62262 8.76367 5.79102 8.76367C4.95946 8.76361 4.28535 8.08933 4.28516 7.25781C4.28516 6.42612 4.95934 5.75202 5.79102 5.75195Z" fill="url(#paint0_linear_3201_706)"/>
<defs>
<linearGradient id="paint0_linear_3201_706" x1="3.07005" y1="3.08203" x2="14.9339" y2="14.9189" gradientUnits="userSpaceOnUse">
<stop offset="0.139423" stop-color="#729CF1"/>
<stop offset="0.451923" stop-color="#A79AE4"/>
<stop offset="0.528846" stop-color="#B39DF0"/>
<stop offset="0.846154" stop-color="#D593EE"/>
</linearGradient>
</defs>
</svg>
